HIERARCHY
ROOT hip
{
	OFFSET 0.000000 0.000000 0.000000 
	CHANNELS 6 Xposition Yposition Zposition Xrotation Zrotation Yrotation
	JOINT abdomen
	{
		OFFSET 0.000000 3.402643 0.000000 
		CHANNELS 3 Xrotation Zrotation Yrotation
		JOINT chest
		{
			OFFSET 0.000000 8.438565 -0.680529 
			CHANNELS 3 Xrotation Zrotation Yrotation
			JOINT neck
			{
				OFFSET 0.000000 10.207942 -0.272212 
				CHANNELS 3 Xrotation Zrotation Yrotation
				JOINT head
				{
					OFFSET 0.000000 3.130431 0.000000 
					CHANNELS 3 Xrotation Zrotation Yrotation
					End Site
					{
						OFFSET 0.000000 3.130435 0.000000 
					}
				}
			}
			JOINT lCollar
			{
				OFFSET 3.470700 6.669187 -0.816635 
				CHANNELS 3 Yrotation Zrotation Xrotation
				JOINT lShldr
				{
					OFFSET 3.198488 0.000000 0.000000 
					CHANNELS 3 Zrotation Yrotation Xrotation
					JOINT lForeArm
					{
						OFFSET 10.139888 0.000000 0.000000 
						CHANNELS 3 Yrotation Zrotation Xrotation
						JOINT lHand
						{
							OFFSET 8.370511 0.000000 0.000000 
							CHANNELS 3 Zrotation Yrotation Xrotation
							End Site
							{
								OFFSET 4.083176 0.000000 0.000000 
							}
						}
					}
				}
			}
			JOINT rCollar
			{
				OFFSET -3.470700 6.669187 -0.816635 
				CHANNELS 3 Yrotation Zrotation Xrotation
				JOINT rShldr
				{
					OFFSET -3.198488 0.000000 0.000000 
					CHANNELS 3 Zrotation Yrotation Xrotation
					JOINT rForeArm
					{
						OFFSET -10.139888 0.000000 0.000000 
						CHANNELS 3 Yrotation Zrotation Xrotation
						JOINT rHand
						{
							OFFSET -8.370511 0.000000 0.000000 
							CHANNELS 3 Zrotation Yrotation Xrotation
							End Site
							{
								OFFSET -4.083176 0.000000 0.000000 
							}
						}
					}
				}
			}
		}
	}
	JOINT lThigh
	{
		OFFSET 5.308129 -1.633274 1.361059 
		CHANNELS 3 Xrotation Zrotation Yrotation
		JOINT lShin
		{
			OFFSET -2.041588 -20.007561 0.000000 
			CHANNELS 3 Xrotation Zrotation Yrotation
			JOINT lFoot
			{
				OFFSET 0.000000 -19.190928 -1.224953 
				CHANNELS 3 Xrotation Yrotation Zrotation
				End Site
				{
					OFFSET 0.000000 -2.449906 4.627600 
				}
			}
		}
	}
	JOINT rThigh
	{
		OFFSET -5.308129 -1.633274 1.361059 
		CHANNELS 3 Xrotation Zrotation Yrotation
		JOINT rShin
		{
			OFFSET 2.041588 -20.007561 0.000000 
			CHANNELS 3 Xrotation Zrotation Yrotation
			JOINT rFoot
			{
				OFFSET 0.000000 -19.190928 -1.224953 
				CHANNELS 3 Xrotation Yrotation Zrotation
				End Site
				{
					OFFSET 0.000000 -2.449906 4.627600 
				}
			}
		}
	}
}
MOTION
Frames: 8
Frame Time: 0.033333
-4.225125 49.763741 -4.473009 -20.800783 -4.121094 8.046876 0.000000 0.000000 0.000000 19.179689 8.291017 -1.678280 22.333984 -0.195312 1.699220 -17.226563 -6.982422 3.397250 -9.970703 -6.240234 18.359375 -58.759769 -16.806643 40.107422 -16.718750 9.355727 4.707160 -14.560546 -9.824219 -4.210651 3.056641 18.496094 16.608229 51.513672 13.339845 59.025688 12.197266 -13.066405 7.021485 -0.283203 5.478520 -19.022518 6.142416 20.778122 -14.080608 24.880913 -0.568070 -1.793458 -8.998146 7.204478 -15.004460 14.797319 10.072702 -1.219936 19.237509 -2.109355 -0.282859 -14.101007 -3.943286 -2.431589 
-4.230144 49.762299 -4.481449 -20.800783 -4.121094 8.046876 0.000000 0.000000 0.000000 19.179689 8.291017 -1.678280 22.509766 -0.048828 1.874992 -17.050779 -6.816406 3.543763 -9.970703 -6.240234 18.359375 -58.818359 -16.640625 40.290173 -16.718750 9.355727 4.707160 -14.531250 -10.195313 -4.083758 3.056641 18.496094 16.608229 51.562500 13.173827 59.199223 12.197266 -13.066405 7.021485 -0.664063 5.791016 -19.072266 6.142608 20.775864 -13.867619 24.727663 -0.528406 -1.983139 -9.044431 7.222981 -15.016427 14.778180 10.073031 -1.055882 19.238279 -2.102045 -0.281691 -14.079715 -4.130315 -2.354201 
-4.234622 49.760513 -4.489666 -20.800783 -4.121094 8.046876 0.000000 0.000000 0.000000 19.179689 8.291017 -1.678280 22.666018 0.087891 2.070328 -16.865232 -6.816406 3.700013 -9.970703 -6.240234 18.359375 -58.837894 -16.650391 40.468750 -16.552734 9.355470 4.697266 -14.306641 -10.498048 -4.298654 3.056641 18.496094 16.608229 51.582031 13.193360 59.377224 12.021485 -13.056641 7.004159 -0.722656 6.328125 -18.973534 6.142608 20.775864 -13.867619 24.860317 -0.362502 -2.130791 -8.996352 7.215432 -15.009964 14.778181 10.073029 -1.055883 19.238279 -2.102045 -0.281691 -14.079715 -4.130316 -2.354202 
-4.238671 49.758057 -4.494997 -20.800783 -4.121094 7.871094 0.000000 0.000000 0.000000 19.179689 8.291017 -1.678280 22.841797 0.058594 2.187509 -16.513672 -6.640625 3.836761 -9.980468 -6.396484 18.321400 -58.847652 -16.660156 40.641731 -16.552734 9.355470 4.697266 -14.091798 -10.810548 -4.521484 3.056641 18.320314 16.618023 51.601563 13.007813 59.367432 11.835938 -13.056642 6.962890 -0.927734 6.865234 -18.690237 6.142611 20.775860 -13.867620 24.860317 -0.362505 -2.130791 -9.157769 7.265822 -15.006214 14.631309 10.267870 -1.022319 19.392126 -2.255623 -0.146076 -13.983342 -3.954661 -2.092822 
-4.242094 49.754921 -4.495031 -20.624998 -4.130859 7.850859 0.000000 0.000000 0.000000 19.179689 8.291017 -1.502498 22.998047 0.195313 2.382811 -16.513672 -6.464844 3.993041 -9.980468 -6.396484 18.321400 -58.710934 -16.630859 40.827282 -16.552734 9.355470 4.697266 -13.886718 -10.937499 -4.757710 3.056641 18.320314 16.618023 51.777344 12.861328 59.181862 11.835938 -13.056642 6.962890 -0.927734 7.128906 -18.016367 6.142609 20.775856 -13.867620 24.860317 -0.362501 -2.130791 -9.157607 7.266326 -15.006024 14.631309 10.267864 -1.022319 19.392126 -2.255621 -0.146076 -13.980670 -3.970611 -2.079389 
-4.244023 49.751404 -4.489461 -20.644533 -4.287109 7.753905 0.000000 0.000000 0.000000 19.179689 8.291017 -1.502498 23.007813 0.351563 2.539120 -16.347656 -6.279296 4.150391 -10.029297 -6.376953 18.164063 -58.720699 -16.650391 41.051891 -16.552734 9.355470 4.697266 -13.857421 -11.123048 -4.777275 3.085938 18.310549 16.442244 51.904297 12.880860 58.810776 11.835938 -13.056642 6.962890 -0.927734 7.187500 -17.498779 5.956929 20.834444 -14.263984 24.890505 -0.558305 -1.801655 -8.994432 7.218831 -14.835328 14.631309 10.267866 -1.022319 19.392126 -2.255619 -0.146076 -14.096581 -4.142311 -2.186233 
-4.243828 49.747307 -4.480783 -20.644533 -4.287109 7.753905 0.000000 0.000000 0.000000 19.003904 8.300781 -1.533203 23.164063 0.302735 2.714847 -16.171875 -6.279297 4.471588 -10.029297 -6.376953 18.164063 -58.759769 -16.474609 41.054691 -16.552734 9.355470 4.697266 -13.652344 -11.259767 -4.972610 3.085938 18.310549 16.442244 51.894535 12.871095 58.644756 11.835938 -13.056642 6.962890 -0.722656 7.089843 -17.117937 5.957168 21.009390 -14.081467 25.062809 -0.387793 -1.940215 -8.973078 7.133280 -15.448718 14.631309 10.267866 -1.022319 19.392126 -2.255619 -0.146076 -14.096581 -4.142311 -2.186233 
-4.241514 49.741768 -4.472958 -20.644533 -4.287109 7.753905 0.000000 0.000000 0.000000 19.003904 8.300781 -1.533203 23.330076 0.400391 3.076172 -15.810546 -6.113282 4.598569 -10.029297 -6.376953 18.164063 -58.769531 -16.474609 41.227703 -16.552734 9.355470 4.697266 -13.613280 -11.416015 -5.167947 3.085938 18.310549 16.442244 51.894535 12.871095 58.644756 11.660157 -13.046876 6.955330 -0.488281 6.777344 -16.874998 5.957168 21.009388 -14.081467 25.062809 -0.387790 -1.940214 -8.976573 7.300225 -15.370049 14.622409 10.239335 -0.675545 19.405176 -2.102058 -0.278632 -14.071402 -4.094359 -2.334732 
